<?xml version="1.0" encoding="UTF-8"?>
<svg width="1824px" height="298px" viewBox="0 0 1824 298" version="1.1" xmlns="http://www.w3.org/2000/svg" xmlns:xlink="http://www.w3.org/1999/xlink">
    <title>KAVANAH</title>
    <defs>
        <linearGradient x1="50%" y1="0%" x2="50%" y2="100%" id="linearGradient-1">
            <stop stop-color="#4E4E4E" offset="0%"></stop>
            <stop stop-color="#202020" offset="100%"></stop>
        </linearGradient>
        <linearGradient x1="50%" y1="0%" x2="50%" y2="100%" id="linearGradient-2">
            <stop stop-color="#4E4E4E" offset="0%"></stop>
            <stop stop-color="#202020" offset="100%"></stop>
        </linearGradient>
        <linearGradient x1="50%" y1="0%" x2="50%" y2="100%" id="linearGradient-3">
            <stop stop-color="#4E4E4E" offset="0%"></stop>
            <stop stop-color="#202020" offset="100%"></stop>
        </linearGradient>
        <linearGradient x1="50%" y1="0%" x2="50%" y2="100%" id="linearGradient-4">
            <stop stop-color="#4E4E4E" offset="0%"></stop>
            <stop stop-color="#202020" offset="100%"></stop>
        </linearGradient>
    </defs>
    <g id="Page-1" stroke="none" stroke-width="1" fill="none" fill-rule="evenodd" fill-opacity="0">
        <g id="MacBook-Pro-16&quot;-Copy-4" transform="translate(-50, -537)" fill="#FFFFFF">
            <g id="KAVANAH" transform="translate(51, 538)">
                <path d="M60.0559567,-0.5 L60.0559567,118.745714 L99.1738489,118.745714 L164.009589,-0.5 L233.169056,-0.5 L151.78458,142.931527 L234.838854,296.5 L164.851918,296.5 L98.7481737,172.812684 L60.0559567,172.605541 L60.0559567,296.5 L-0.5,296.5 L-0.5,-0.5 L60.0559567,-0.5 Z" id="Path" stroke="url(#linearGradient-1)" fill-rule="nonzero"></path>
                <path d="M430.741415,-0.5 L487.604811,296.5 L428.010969,296.5 L415.957609,233.071429 L344.042391,233.071429 L331.989031,296.5 L272.395189,296.5 L329.258585,-0.5 L430.741415,-0.5 Z M380,45.7982995 L354.171655,181.117143 L405.828345,181.117143 L380,45.7982995 Z" id="Shape" stroke="url(#linearGradient-2)" fill-rule="nonzero"></path>
                <path d="M586.988433,-0.5 L635,250.210192 L683.011567,-0.5 L742.604811,-0.5 L685.741415,296.5 L584.258585,296.5 L527.395189,-0.5 L586.988433,-0.5 Z" id="Path" stroke="url(#linearGradient-2)" fill-rule="nonzero"></path>
                <path d="M939.741415,-0.5 L996.604811,296.5 L937.010969,296.5 L924.957609,233.071429 L853.042391,233.071429 L840.989031,296.5 L781.395189,296.5 L838.258585,-0.5 L939.741415,-0.5 Z M889,45.7982995 L863.171655,181.117143 L914.828345,181.117143 L889,45.7982995 Z" id="Shape" stroke="url(#linearGradient-2)" fill-rule="nonzero"></path>
                <path d="M1153.17657,-0.5 L1206.78119,246.307815 L1206.78119,-0.5 L1269.5,-0.5 L1269.5,296.5 L1163.18572,296.5 L1110.21881,48.5006688 L1110.21881,296.5 L1047.5,296.5 L1047.5,-0.5 L1153.17657,-0.5 Z" id="Path" stroke="url(#linearGradient-3)" fill-rule="nonzero"></path>
                <path d="M1480.74142,-0.5 L1537.60481,296.5 L1478.01097,296.5 L1465.95761,233.071429 L1394.04239,233.071429 L1381.98903,296.5 L1322.39519,296.5 L1379.25858,-0.5 L1480.74142,-0.5 Z M1430,45.7982995 L1404.17166,181.117143 L1455.82834,181.117143 L1430,45.7982995 Z" id="Shape" stroke="url(#linearGradient-2)" fill-rule="nonzero"></path>
                <path d="M1652.13909,-0.5 L1652.13909,120.437143 L1760.86091,120.437143 L1760.86091,-0.5 L1823.5,-0.5 L1823.5,296.5 L1760.86091,296.5 L1760.86091,172.391429 L1652.13909,172.391429 L1652.13909,296.5 L1589.5,296.5 L1589.5,-0.5 L1652.13909,-0.5 Z" id="Path" stroke="url(#linearGradient-4)" fill-rule="nonzero"></path>
            </g>
        </g>
    </g>
</svg>